#Comment line ignore any data following # character 
#Hierarchical Translation and Rotation (.htr) file 
[Header]	
#Header keywords are followed by a single value 
FileType HTR		#Single word string
DataType HTRS		#Translation followed by rotation and scale data
FileVersion 1		#integer
NumSegments 84		#integer
NumFrames 2		#integer
DataFrameRate 30		#integer, data frame rate in this file
EulerRotationOrder ZYX
CalibrationUnits mm
RotationUnits Degrees
GlobalAxisofGravity Y
BoneLengthAxis Y
ScaleFactor 1.00
[SegmentNames&Hierarchy]
#CHILD	PARENT
MASTER GLOBAL
root MASTER
chest root
L_mid_tent01 root
R_mid_tent01 root
spine01 root
Bip01_Neck chest
L_humerus chest
R_humerus chest
weapon_bone chest
Bip01_Head Bip01_Neck
eye_left_bone Bip01_Head
eye_right_bone Bip01_Head
L_forearm L_humerus
L_front_hand L_forearm
L_weapon_bone L_forearm
L_front_hand01_01 L_front_hand
L_front_hand02_01 L_front_hand
L_front_hand03_01 L_front_hand
L_front_hand01_02 L_front_hand01_01
L_front_hand02_02 L_front_hand02_01
L_front_hand03_02 L_front_hand03_01
R_forearm R_humerus
R_front_hand R_forearm
R_weapon_bone R_forearm
R_front_hand01_01 R_front_hand
R_front_hand02_01 R_front_hand
R_front_hand03_01 R_front_hand
R_front_hand01_02 R_front_hand01_01
R_front_hand02_02 R_front_hand02_01
R_front_hand03_02 R_front_hand03_01
null_rope01_connect L_mid_tent01
Rope1_Seg01 null_rope01_connect
Rope1_Seg02 Rope1_Seg01
Rope1_Seg03 Rope1_Seg02
Rope1_Seg04 Rope1_Seg03
Rope1_Seg05 Rope1_Seg04
Rope1_Seg06 Rope1_Seg05
Rope1_Seg07 Rope1_Seg06
Rope1_Seg09 Rope1_Seg07
L_mid_hand01 Rope1_Seg09
L_mid_hand02 Rope1_Seg09
L_mid_hand03 Rope1_Seg09
null_rope02_connect R_mid_tent01
Rope2_Seg01 null_rope02_connect
Rope2_Seg02 Rope2_Seg01
Rope2_Seg03 Rope2_Seg02
Rope2_Seg04 Rope2_Seg03
Rope2_Seg05 Rope2_Seg04
Rope2_Seg06 Rope2_Seg05
Rope2_Seg07 Rope2_Seg06
Rope2_Seg09 Rope2_Seg07
R_mid_hand01 Rope2_Seg09
R_mid_hand02 Rope2_Seg09
R_mid_hand03 Rope2_Seg09
spine02 spine01
spine03 spine02
pelvis spine03
null_rope03_connect pelvis
null_rope04_connect pelvis
Rope3_Seg01 null_rope03_connect
Rope3_Seg02 Rope3_Seg01
Rope3_Seg03 Rope3_Seg02
Rope3_Seg04 Rope3_Seg03
Rope3_Seg05 Rope3_Seg04
Rope3_Seg06 Rope3_Seg05
Rope3_Seg07 Rope3_Seg06
Rope3_Seg08 Rope3_Seg07
Rope3_Seg09 Rope3_Seg08
R_rear_hand01 Rope3_Seg09
R_rear_hand02 Rope3_Seg09
R_rear_hand03 Rope3_Seg09
Rope4_Seg01 null_rope04_connect
Rope4_Seg02 Rope4_Seg01
Rope4_Seg03 Rope4_Seg02
Rope4_Seg04 Rope4_Seg03
Rope4_Seg05 Rope4_Seg04
Rope4_Seg06 Rope4_Seg05
Rope4_Seg07 Rope4_Seg06
Rope4_Seg08 Rope4_Seg07
Rope4_Seg09 Rope4_Seg08
L_rear_hand01 Rope4_Seg09
L_rear_hand02 Rope4_Seg09
L_rear_hand03 Rope4_Seg09
[BasePosition]
#SegmentName Tx, Ty, Tz, Rx, Ry, Rz, BoneLength
MASTER 0.000000 0.000000 0.000000 -90.000000 0.000000 0.000000 10.000000 
root 0.000000 0.000000 0.000000 0.000000 0.000000 0.000000 10.000000 
chest 0.000000 0.000000 0.000000 0.000000 0.000000 0.000000 10.000000 
L_mid_tent01 0.000000 0.000000 0.000000 0.000000 0.000000 0.000000 10.000000 
R_mid_tent01 0.000000 0.000000 0.000000 0.000000 0.000000 0.000000 10.000000 
spine01 0.000000 0.000000 0.000000 0.000000 0.000000 0.000000 10.000000 
Bip01_Neck 0.000000 0.000000 0.000000 0.000000 0.000000 0.000000 10.000000 
L_humerus 0.000000 0.000000 0.000000 0.000000 0.000000 0.000000 10.000000 
R_humerus 0.000000 0.000000 0.000000 0.000000 0.000000 0.000000 10.000000 
weapon_bone 0.000000 0.000000 0.000000 0.000000 0.000000 0.000000 10.000000 
Bip01_Head 0.000000 0.000000 0.000000 0.000000 0.000000 0.000000 10.000000 
eye_left_bone 0.000000 0.000000 0.000000 0.000000 0.000000 0.000000 10.000000 
eye_right_bone 0.000000 0.000000 0.000000 0.000000 0.000000 0.000000 10.000000 
L_forearm 0.000000 0.000000 0.000000 0.000000 0.000000 0.000000 10.000000 
L_front_hand 0.000000 0.000000 0.000000 0.000000 0.000000 0.000000 10.000000 
L_weapon_bone 0.000000 0.000000 0.000000 0.000000 0.000000 0.000000 10.000000 
L_front_hand01_01 0.000000 0.000000 0.000000 0.000000 0.000000 0.000000 10.000000 
L_front_hand02_01 0.000000 0.000000 0.000000 0.000000 0.000000 0.000000 10.000000 
L_front_hand03_01 0.000000 0.000000 0.000000 0.000000 0.000000 0.000000 10.000000 
L_front_hand01_02 0.000000 0.000000 0.000000 0.000000 0.000000 0.000000 10.000000 
L_front_hand02_02 0.000000 0.000000 0.000000 0.000000 0.000000 0.000000 10.000000 
L_front_hand03_02 0.000000 0.000000 0.000000 0.000000 0.000000 0.000000 10.000000 
R_forearm 0.000000 0.000000 0.000000 0.000000 0.000000 0.000000 10.000000 
R_front_hand 0.000000 0.000000 0.000000 0.000000 0.000000 0.000000 10.000000 
R_weapon_bone 0.000000 0.000000 0.000000 0.000000 0.000000 0.000000 10.000000 
R_front_hand01_01 0.000000 0.000000 0.000000 0.000000 0.000000 0.000000 10.000000 
R_front_hand02_01 0.000000 0.000000 0.000000 0.000000 0.000000 0.000000 10.000000 
R_front_hand03_01 0.000000 0.000000 0.000000 0.000000 0.000000 0.000000 10.000000 
R_front_hand01_02 0.000000 0.000000 0.000000 0.000000 0.000000 0.000000 10.000000 
R_front_hand02_02 0.000000 0.000000 0.000000 0.000000 0.000000 0.000000 10.000000 
R_front_hand03_02 0.000000 0.000000 0.000000 0.000000 0.000000 0.000000 10.000000 
null_rope01_connect 0.000000 0.000000 0.000000 0.000000 0.000000 0.000000 10.000000 
Rope1_Seg01 0.000000 0.000000 0.000000 0.000000 0.000000 0.000000 10.000000 
Rope1_Seg02 0.000000 0.000000 0.000000 0.000000 0.000000 0.000000 10.000000 
Rope1_Seg03 0.000000 0.000000 0.000000 0.000000 0.000000 0.000000 10.000000 
Rope1_Seg04 0.000000 0.000000 0.000000 0.000000 0.000000 0.000000 10.000000 
Rope1_Seg05 0.000000 0.000000 0.000000 0.000000 0.000000 0.000000 10.000000 
Rope1_Seg06 0.000000 0.000000 0.000000 0.000000 0.000000 0.000000 10.000000 
Rope1_Seg07 0.000000 0.000000 0.000000 0.000000 0.000000 0.000000 10.000000 
Rope1_Seg09 0.000000 0.000000 0.000000 0.000000 0.000000 0.000000 10.000000 
L_mid_hand01 0.000000 0.000000 0.000000 0.000000 0.000000 0.000000 10.000000 
L_mid_hand02 0.000000 0.000000 0.000000 0.000000 0.000000 0.000000 10.000000 
L_mid_hand03 0.000000 0.000000 0.000000 0.000000 0.000000 0.000000 10.000000 
null_rope02_connect 0.000000 0.000000 0.000000 0.000000 0.000000 0.000000 10.000000 
Rope2_Seg01 0.000000 0.000000 0.000000 0.000000 0.000000 0.000000 10.000000 
Rope2_Seg02 0.000000 0.000000 0.000000 0.000000 0.000000 0.000000 10.000000 
Rope2_Seg03 0.000000 0.000000 0.000000 0.000000 0.000000 0.000000 10.000000 
Rope2_Seg04 0.000000 0.000000 0.000000 0.000000 0.000000 0.000000 10.000000 
Rope2_Seg05 0.000000 0.000000 0.000000 0.000000 0.000000 0.000000 10.000000 
Rope2_Seg06 0.000000 0.000000 0.000000 0.000000 0.000000 0.000000 10.000000 
Rope2_Seg07 0.000000 0.000000 0.000000 0.000000 0.000000 0.000000 10.000000 
Rope2_Seg09 0.000000 0.000000 0.000000 0.000000 0.000000 0.000000 10.000000 
R_mid_hand01 0.000000 0.000000 0.000000 0.000000 0.000000 0.000000 10.000000 
R_mid_hand02 0.000000 0.000000 0.000000 0.000000 0.000000 0.000000 10.000000 
R_mid_hand03 0.000000 0.000000 0.000000 0.000000 0.000000 0.000000 10.000000 
spine02 0.000000 0.000000 0.000000 0.000000 0.000000 0.000000 10.000000 
spine03 0.000000 0.000000 0.000000 0.000000 0.000000 0.000000 10.000000 
pelvis 0.000000 0.000000 0.000000 0.000000 0.000000 0.000000 10.000000 
null_rope03_connect 0.000000 0.000000 0.000000 0.000000 0.000000 0.000000 10.000000 
null_rope04_connect 0.000000 0.000000 0.000000 0.000000 0.000000 0.000000 10.000000 
Rope3_Seg01 0.000000 0.000000 0.000000 0.000000 0.000000 0.000000 10.000000 
Rope3_Seg02 0.000000 0.000000 0.000000 0.000000 0.000000 0.000000 10.000000 
Rope3_Seg03 0.000000 0.000000 0.000000 0.000000 0.000000 0.000000 10.000000 
Rope3_Seg04 0.000000 0.000000 0.000000 0.000000 0.000000 0.000000 10.000000 
Rope3_Seg05 0.000000 0.000000 0.000000 0.000000 0.000000 0.000000 10.000000 
Rope3_Seg06 0.000000 0.000000 0.000000 0.000000 0.000000 0.000000 10.000000 
Rope3_Seg07 0.000000 0.000000 0.000000 0.000000 0.000000 0.000000 10.000000 
Rope3_Seg08 0.000000 0.000000 0.000000 0.000000 0.000000 0.000000 10.000000 
Rope3_Seg09 0.000000 0.000000 0.000000 0.000000 0.000000 0.000000 10.000000 
R_rear_hand01 0.000000 0.000000 0.000000 0.000000 0.000000 0.000000 10.000000 
R_rear_hand02 0.000000 0.000000 0.000000 0.000000 0.000000 0.000000 10.000000 
R_rear_hand03 0.000000 0.000000 0.000000 0.000000 0.000000 0.000000 10.000000 
Rope4_Seg01 0.000000 0.000000 0.000000 0.000000 0.000000 0.000000 10.000000 
Rope4_Seg02 0.000000 0.000000 0.000000 0.000000 0.000000 0.000000 10.000000 
Rope4_Seg03 0.000000 0.000000 0.000000 0.000000 0.000000 0.000000 10.000000 
Rope4_Seg04 0.000000 0.000000 0.000000 0.000000 0.000000 0.000000 10.000000 
Rope4_Seg05 0.000000 0.000000 0.000000 0.000000 0.000000 0.000000 10.000000 
Rope4_Seg06 0.000000 0.000000 0.000000 0.000000 0.000000 0.000000 10.000000 
Rope4_Seg07 0.000000 0.000000 0.000000 0.000000 0.000000 0.000000 10.000000 
Rope4_Seg08 0.000000 0.000000 0.000000 0.000000 0.000000 0.000000 10.000000 
Rope4_Seg09 0.000000 0.000000 0.000000 0.000000 0.000000 0.000000 10.000000 
L_rear_hand01 0.000000 0.000000 0.000000 0.000000 0.000000 0.000000 10.000000 
L_rear_hand02 0.000000 0.000000 0.000000 0.000000 0.000000 0.000000 10.000000 
L_rear_hand03 0.000000 0.000000 0.000000 0.000000 0.000000 0.000000 10.000000 
#Beginning of Data. Separated by tabs
#Fr	Tx	Ty	Tz	Rx	Ry	Rz	SF
[MASTER]
23 0.000000 0.000000 0.000000 0.001660 0.001660 0.001660 0.000000
24 0.000000 0.000000 0.000000 0.001660 0.001660 0.001660 0.000000
[root]
23 24.678061 313.478729 1532.186890 -69.324615 -12.330066 -132.372375 1564.120972
24 22.418652 289.529663 1517.755493 -70.758522 -12.178427 -127.384270 1545.286987
[chest]
23 -84.512650 -34.090519 0.000000 -2.871372 -3.966714 176.458786 91.129311
24 -84.512650 -34.090519 0.000000 -2.859265 -2.992726 176.385468 91.129311
[L_mid_tent01]
23 27.299072 22.179308 -249.918671 101.747185 23.215141 137.900818 252.381668
24 27.299070 22.179302 -249.918671 95.116859 29.809292 128.953110 252.381668
[R_mid_tent01]
23 23.228794 24.509907 226.238495 -126.720268 -16.261505 30.322947 228.744751
24 23.228794 24.509907 226.238495 -130.457153 -12.276608 29.309694 228.744751
[spine01]
23 -0.361383 -0.195265 0.000000 0.001936 0.001327 21.169056 0.410763
24 -0.361383 -0.195265 0.000000 0.001937 0.001326 21.200920 0.410763
[Bip01_Neck]
23 165.484543 71.581718 0.000119 175.896118 1.177290 24.871183 180.302734
24 165.484543 71.581718 0.000119 175.896118 1.177290 24.871183 180.302734
[L_humerus]
23 -13.983130 -135.272980 -120.471481 -75.877747 32.790859 12.444600 181.680161
24 -13.983130 -135.272980 -120.471481 -78.674263 38.536324 13.267261 181.680161
[R_humerus]
23 -13.983309 -135.273102 125.287651 139.588089 -36.486660 -19.622433 184.909012
24 -13.983309 -135.273102 125.287651 138.596680 -38.164402 -20.202318 184.909012
[weapon_bone]
23 235.964890 -300.705902 0.000000 0.000000 -89.951546 -128.212341 382.234833
24 235.964890 -300.705902 0.000000 0.000000 -89.951546 -128.212341 382.234833
[Bip01_Head]
23 255.193863 88.499008 1.776050 34.332752 12.071937 -69.748421 270.109497
24 251.830750 95.066902 2.540283 30.755598 11.090662 -69.566559 269.189331
[eye_left_bone]
23 30.555967 158.056503 -75.408920 -104.218590 -85.597984 4.718000 177.769592
24 30.173674 157.830643 -75.335258 -104.218590 -85.597984 4.718000 177.472137
[eye_right_bone]
23 41.346436 158.970901 53.266907 75.788536 -85.594551 4.713911 172.680740
24 40.862396 158.725021 53.348034 75.788536 -85.594551 4.713911 172.364090
[L_forearm]
23 322.776093 0.000000 -0.000119 0.001060 0.002094 -36.316055 322.776093
24 322.776093 0.000000 -0.000119 0.000806 0.002205 -49.845058 322.776093
[L_front_hand]
23 241.149185 -0.042021 -3.300071 39.578915 3.347552 -5.332743 241.171753
24 241.149185 -0.042021 -3.300071 39.578915 3.347552 -5.332743 241.171753
[L_weapon_bone]
23 156.183838 0.000000 0.000000 0.000900 0.002168 -44.903046 156.183838
24 156.183838 0.000000 0.000000 0.001021 0.002118 -38.511082 156.183838
[L_front_hand01_01]
23 86.095154 20.947098 -0.655860 -0.288967 -0.524182 66.581497 88.609184
24 86.095154 20.947098 -0.655860 -0.288967 -0.524182 66.581497 88.609184
[L_front_hand02_01]
23 86.935165 -11.437475 24.513514 142.546356 -55.255383 -47.355198 91.046425
24 86.935165 -11.437475 24.513514 142.546371 -55.255386 -47.355206 91.046425
[L_front_hand03_01]
23 86.637497 -14.123976 -20.424902 -142.852737 53.473351 -49.356182 90.126129
24 86.637497 -14.123976 -20.424902 -142.852753 53.473373 -49.356205 90.126129
[L_front_hand01_02]
23 71.020905 -0.000179 0.000030 0.000195 -0.002339 -99.519585 71.020905
24 71.020905 -0.000179 0.000030 0.000001 -0.002347 -90.041962 71.020905
[L_front_hand02_02]
23 71.020927 -0.000119 0.000060 0.000195 -0.002339 -99.519585 71.020927
24 71.020927 -0.000119 0.000060 0.000001 -0.002347 -90.041962 71.020927
[L_front_hand03_02]
23 71.020905 -0.000060 0.000060 0.000195 -0.002339 -99.519585 71.020905
24 71.020905 -0.000060 0.000060 0.000001 -0.002347 -90.041962 71.020905
[R_forearm]
23 322.776428 -0.000060 0.000030 0.120019 -0.172524 -35.900108 322.776428
24 322.776428 -0.000060 0.000030 0.127191 -0.169173 -37.562473 322.776428
[R_front_hand]
23 238.847015 -0.006795 2.210259 -2.635298 -10.645461 -26.312506 238.857239
24 238.847015 -0.006795 2.210259 -2.635298 -10.645461 -26.312506 238.857239
[R_weapon_bone]
23 155.664093 0.002503 -0.000030 0.003487 0.001180 -90.988930 155.664078
24 155.664093 0.002503 -0.000030 0.003487 0.001180 -90.988930 155.664078
[R_front_hand01_01]
23 87.624611 14.231146 22.918642 -154.633499 -59.950619 61.746044 91.683487
24 87.624611 14.231146 22.918642 -154.633514 -59.950634 61.746063 91.683487
[R_front_hand02_01]
23 89.356956 14.367283 -19.491137 154.602661 58.302849 63.744389 92.579636
24 89.356956 14.367283 -19.491137 154.602661 58.302849 63.744389 92.579636
[R_front_hand03_01]
23 87.286232 -22.307278 -0.143439 0.162155 -0.423168 -75.767921 90.091743
24 87.286232 -22.307278 -0.143439 0.162155 -0.423168 -75.767921 90.091743
[R_front_hand01_02]
23 71.020905 0.000060 0.000119 0.002323 -0.000334 106.381714 71.020905
24 71.020905 0.000060 0.000119 0.002323 -0.000334 106.381714 71.020905
[R_front_hand02_02]
23 71.020844 -0.000030 -0.000119 0.002323 -0.000334 106.381714 71.020836
24 71.020844 -0.000030 -0.000119 0.002323 -0.000334 106.381714 71.020836
[R_front_hand03_02]
23 71.020905 0.000000 0.000030 0.002323 -0.000334 106.381714 71.020905
24 71.020905 0.000000 0.000030 0.002323 -0.000334 106.381714 71.020905
[null_rope01_connect]
23 328.732483 0.000000 -0.000238 -128.219452 31.684729 74.019867 328.732483
24 328.732483 0.000000 -0.000238 -116.800278 27.007217 88.398819 328.732483
[Rope1_Seg01]
23 -0.000025 0.000012 0.000048 70.989571 47.761173 84.192543 0.000055
24 -0.000024 0.000011 0.000043 73.945351 45.373154 87.190353 0.000051
[Rope1_Seg02]
23 139.999863 -0.000179 0.000000 -3.906226 -15.522204 8.531577 139.999863
24 139.999863 -0.000179 0.000000 -3.734065 -15.677730 12.103958 139.999863
[Rope1_Seg03]
23 139.999924 0.000060 -0.000060 -8.400816 -17.410137 9.041583 139.999924
24 139.999924 0.000060 -0.000060 -7.278204 -17.479666 14.589651 139.999924
[Rope1_Seg04]
23 139.999924 -0.000060 -0.000119 -18.296898 -17.868849 7.420194 139.999924
24 139.999924 -0.000060 -0.000119 -11.094802 -11.593944 7.202412 139.999924
[Rope1_Seg05]
23 139.999832 0.000119 -0.000060 -2.499268 -0.139237 -1.697110 139.999832
24 139.999832 0.000119 -0.000060 -1.796346 5.499084 -7.363983 139.999832
[Rope1_Seg06]
23 139.999954 0.000119 -0.000060 8.624318 11.538236 -3.443264 139.999954
24 139.999954 0.000119 -0.000060 0.320585 8.293096 -8.273261 139.999954
[Rope1_Seg07]
23 139.999985 0.000060 0.000000 2.461421 5.996116 -3.173913 139.999985
24 139.999985 0.000060 0.000000 -0.463173 2.595428 -3.477207 139.999985
[Rope1_Seg09]
23 121.602913 0.000119 -0.000089 -21.088892 -1.359713 0.848459 121.602913
24 121.602913 0.000119 -0.000089 -5.688898 -1.357701 0.846611 121.602913
[L_mid_hand01]
23 103.859421 1.038730 8.195221 119.744926 -60.011074 -26.862082 104.187431
24 103.859421 1.038730 8.195221 123.429649 -63.258011 -31.050037 104.187431
[L_mid_hand02]
23 105.572853 -4.139662 -10.864139 -160.837738 40.994530 -61.495262 106.211075
24 105.572853 -4.139662 -10.864139 -164.054031 42.141357 -66.337196 106.211075
[L_mid_hand03]
23 104.641464 17.579376 -3.913581 -8.849215 16.616249 65.333374 106.179977
24 104.641464 17.579376 -3.913581 -7.708114 17.164392 69.266457 106.179977
[null_rope02_connect]
23 328.732849 0.000179 -0.000119 167.227753 9.008339 -106.268463 328.732849
24 328.732849 0.000179 -0.000119 164.285629 14.460237 -106.172401 328.732849
[Rope2_Seg01]
23 0.000095 0.000153 0.000052 101.508759 14.777083 -69.605911 0.000187
24 0.000095 0.000153 0.000055 98.757027 15.247480 -58.560329 0.000188
[Rope2_Seg02]
23 139.999741 -0.000060 -0.000119 -52.723930 20.338608 12.727988 139.999756
24 139.999741 -0.000060 -0.000119 -71.400574 16.696863 11.074635 139.999756
[Rope2_Seg03]
23 140.000107 0.000030 0.000000 -40.032112 -0.611351 42.485512 140.000107
24 140.000107 0.000030 0.000000 -32.867744 -11.759305 34.065319 140.000107
[Rope2_Seg04]
23 139.999802 0.000000 -0.000060 -6.110583 -14.750937 17.169214 139.999802
24 139.999802 0.000000 -0.000060 -4.557774 -19.461096 14.050573 139.999802
[Rope2_Seg05]
23 139.999985 -0.000060 0.000119 -3.388887 -6.388587 24.907049 139.999985
24 139.999985 -0.000060 0.000119 -4.176785 -9.134657 22.274323 139.999985
[Rope2_Seg06]
23 139.999893 -0.000030 -0.000119 5.288703 -6.940473 37.106419 139.999893
24 139.999893 -0.000030 -0.000119 4.640604 -10.940443 41.382183 139.999893
[Rope2_Seg07]
23 139.999893 0.000060 -0.000060 6.088597 -2.051471 14.315490 139.999893
24 139.999893 0.000060 -0.000060 8.356400 -3.468362 16.777893 139.999893
[Rope2_Seg09]
23 121.338966 0.000089 -0.000060 33.793236 -1.359788 -0.847141 121.338966
24 121.338966 0.000089 -0.000060 33.793236 -1.359788 -0.847141 121.338966
[R_mid_hand01]
23 104.680779 11.144459 -10.335981 -42.276798 23.959398 26.799994 105.778534
24 104.680779 11.144459 -10.335981 -43.323078 21.654202 24.098293 105.778534
[R_mid_hand02]
23 104.070427 2.443552 8.231699 73.243484 -30.648268 9.258533 104.424065
24 104.070427 2.443552 8.231699 73.776604 -27.392876 8.157246 104.424065
[R_mid_hand03]
23 106.028137 -11.221827 -5.996406 -167.519577 9.792204 -34.831245 106.788818
24 106.028137 -11.221827 -5.996406 -166.969986 9.041595 -31.474035 106.788818
[spine02]
23 129.756927 0.001550 0.000119 0.320815 -4.048618 -12.361019 129.756927
24 129.756927 0.001550 0.000119 0.312014 -4.049450 -12.251209 129.756927
[spine03]
23 78.614044 0.081530 -4.899011 2.117934 3.714834 19.826038 78.766579
24 78.614044 0.081525 -4.899010 2.100542 3.726206 19.564514 78.766579
[pelvis]
23 169.435242 0.051022 0.000000 -0.061219 -0.179971 14.567460 169.435257
24 169.435242 0.051022 0.000000 -0.061111 -0.180008 14.498661 169.435257
[null_rope03_connect]
23 -1.257226 -2.466202 137.391083 -57.482571 -47.535660 124.838333 137.418976
24 -1.257226 -2.466202 137.391083 -56.466118 -52.004734 122.344894 137.418976
[null_rope04_connect]
23 -1.259640 -2.480268 -137.844437 -57.482571 -47.535660 124.838333 137.872513
24 -1.259640 -2.480268 -137.844437 -56.466118 -52.004734 122.344894 137.872513
[Rope3_Seg01]
23 0.000000 0.000000 0.000000 -109.483635 -22.057661 -123.052551 0.000000
24 0.000000 0.000000 0.000000 -113.183380 -21.403330 -118.093880 0.000000
[Rope3_Seg02]
23 139.999924 -0.000119 0.000060 4.094789 9.418116 6.767958 139.999924
24 139.999924 -0.000119 0.000060 2.351093 8.025568 8.042562 139.999924
[Rope3_Seg03]
23 139.999924 -0.000119 0.000119 12.416379 15.167306 9.717058 139.999924
24 139.999924 -0.000119 0.000119 7.118374 12.855723 12.317828 139.999924
[Rope3_Seg04]
23 139.999924 0.000119 0.000000 27.157295 15.720130 7.112131 139.999924
24 139.999924 0.000119 0.000000 17.505960 13.684192 12.077972 139.999924
[Rope3_Seg05]
23 139.999924 -0.000238 0.000060 64.688049 23.385386 -2.997226 139.999924
24 139.999924 -0.000238 0.000060 101.481758 22.898972 8.411828 139.999924
[Rope3_Seg06]
23 139.999893 -0.000119 -0.000060 22.462452 6.101553 -23.970888 139.999893
24 139.999893 -0.000119 -0.000060 22.831747 2.126614 -22.737640 139.999893
[Rope3_Seg07]
23 139.999771 0.000060 -0.000119 4.798207 -1.815262 -11.703596 139.999771
24 139.999771 0.000060 -0.000119 3.984367 -3.123393 -10.124745 139.999771
[Rope3_Seg08]
23 139.999985 -0.000060 0.000000 1.808277 -1.127694 -4.984020 139.999985
24 139.999985 -0.000060 0.000000 1.637832 -1.675429 -4.574469 139.999985
[Rope3_Seg09]
23 90.185997 -0.000179 -0.000060 36.801163 -1.359449 -0.846905 90.185997
24 90.185997 -0.000179 -0.000060 33.956142 -1.359028 -0.847871 90.185997
[R_rear_hand01]
23 103.366196 -6.073594 -10.757982 -163.529739 18.622267 -36.613609 104.101845
24 103.366196 -6.073594 -10.757982 -161.615479 16.735487 -30.303860 104.101845
[R_rear_hand02]
23 100.509819 12.039542 -7.992327 -32.177662 22.867016 34.718414 101.543350
24 100.509819 12.039542 -7.992327 -34.217869 19.412970 29.063158 101.543350
[R_rear_hand03]
23 101.539970 5.215704 5.435467 82.839149 -37.406811 8.227582 101.819031
24 101.539970 5.215704 5.435467 83.350166 -31.149683 7.314062 101.819031
[Rope4_Seg01]
23 -0.000013 -0.000024 -0.000153 -73.401413 47.547112 120.802391 0.000155
24 -0.000012 -0.000021 -0.000153 -48.668697 54.805004 146.288651 0.000155
[Rope4_Seg02]
23 139.999985 0.000060 0.000119 -0.180520 3.187720 0.387489 139.999985
24 139.999985 0.000060 0.000119 -0.780109 2.507259 -1.811237 139.999985
[Rope4_Seg03]
23 139.999924 0.000000 -0.000238 1.128811 1.446743 8.342977 139.999924
24 139.999924 0.000000 -0.000238 3.109809 -4.739215 13.886619 139.999924
[Rope4_Seg04]
23 139.999985 0.000000 0.000119 -0.768069 10.735579 -5.382854 139.999985
24 139.999985 0.000000 0.000119 -13.183808 16.601450 -35.210506 139.999985
[Rope4_Seg05]
23 139.999802 -0.000060 -0.000119 -3.287307 12.486636 -31.829863 139.999802
24 139.999802 -0.000060 -0.000119 -6.348421 13.253141 -22.397007 139.999802
[Rope4_Seg06]
23 139.999924 0.000000 0.000060 -0.066113 2.063128 -4.586140 139.999924
24 139.999924 0.000000 0.000060 -0.409352 2.434337 -3.272390 139.999924
[Rope4_Seg07]
23 139.999802 0.000000 0.000000 0.064350 1.086260 -2.258154 139.999802
24 139.999802 0.000000 0.000000 -0.114704 1.389767 -1.844686 139.999802
[Rope4_Seg08]
23 139.999924 0.000000 0.000119 -1.488851 0.603562 -1.262532 139.999924
24 139.999924 0.000000 0.000119 -1.583422 0.793441 -1.048035 139.999924
[Rope4_Seg09]
23 90.185791 0.000060 0.000060 176.813904 2.228810 0.850207 90.185791
24 90.185791 0.000060 0.000060 174.675354 2.226363 0.848913 90.185791
[L_rear_hand01]
23 101.696655 -8.392275 -7.654577 -29.619171 -26.214312 139.132217 102.329041
24 101.696655 -8.392275 -7.654577 -31.231728 -24.205091 142.914993 102.329041
[L_rear_hand02]
23 102.726799 -1.568258 5.773216 82.101921 43.864853 170.645187 102.900848
24 102.726799 -1.568258 5.773216 82.573181 39.936115 171.355026 102.900848
[L_rear_hand03]
23 104.552910 9.721220 -10.420293 -165.757553 -20.349705 -136.721191 105.519653
24 104.552910 9.721220 -10.420293 -164.376099 -19.329395 -140.791367 105.519653
